<svg xmlns="http://www.w3.org/2000/svg" viewBox="0 0 643.09 163.43"><defs><style>.cls-1{opacity:0.16;}.cls-2{fill:#231f20;stroke-width:2.65px;}.cls-2,.cls-6{stroke:#fff;stroke-miterlimit:10;}.cls-3,.cls-6{fill:#fff;}.cls-4{fill:#ccc;}.cls-5{fill:#ce242b;}.cls-6{opacity:0.78;font-size:28.22px;stroke-width:0.98px;font-family:Geomanist;letter-spacing:0.8em;}</style></defs><title>Asset 1</title><g id="Layer_2" data-name="Layer 2"><g id="Layer_1-2" data-name="Layer 1"><rect x="1.33" y="1.33" width="180.44" height="160.77"/><g class="cls-1"><polygon class="cls-2" points="172.01 162.1 170.56 162.1 148.85 140.38 148.13 139.66 122.22 113.75 95.82 87.36 65.42 56.95 38.51 30.04 37.79 29.32 9.79 1.33 11.24 1.33 38.51 28.6 39.23 29.32 66.14 56.23 96.54 86.63 122.94 113.03 149.57 139.66 172.01 162.1"/><polygon class="cls-2" points="112.65 162.1 111.21 162.1 93.26 144.15 92.54 143.43 66.14 117.04 35.74 86.63 8.83 59.72 1.33 52.22 1.33 50.77 8.83 58.28 9.56 59 36.47 85.91 66.86 116.31 93.27 142.71 93.98 143.43 112.65 162.1"/><polygon class="cls-2" points="57.39 162.1 55.94 162.1 1.33 107.48 1.33 106.04 57.39 162.1"/><polygon class="cls-2" points="181.77 117.62 181.77 119.07 175.92 113.22 149.34 86.63 122.94 60.24 122.94 60.24 122.22 59.51 92.54 29.83 65.63 2.92 64.91 2.2 64.9 2.2 64.03 1.33 65.47 1.33 65.63 1.48 65.63 1.48 66.35 2.2 93.26 29.11 122.94 58.79 122.94 58.79 123.66 59.51 150.06 85.91 175.92 111.77 176.64 112.49 181.77 117.62"/><polygon class="cls-2" points="181.77 65.43 181.77 66.87 116.23 1.33 117.67 1.33 119.36 3.02 149.03 32.7 149.04 32.7 149.76 33.41 176.16 59.82 176.87 60.53 181.77 65.43"/><polygon class="cls-2" points="181.77 1.33 181.77 1.4 149.76 33.41 149.04 34.14 123.66 59.51 122.94 60.24 122.94 60.24 96.54 86.63 95.82 87.36 66.86 116.31 66.14 117.04 39.23 143.95 38.51 144.66 21.07 162.1 19.63 162.1 37.79 143.95 38.51 143.22 65.42 116.31 66.14 115.59 95.1 86.63 95.82 85.91 122.22 59.51 122.94 58.79 122.94 58.79 148.31 33.41 149.03 32.7 149.04 32.7 180.4 1.33 181.77 1.33"/><polygon class="cls-2" points="122.48 1.33 93.26 30.55 66.86 56.95 66.14 57.67 37.19 86.63 36.46 87.35 9.55 114.26 8.83 114.99 1.33 122.49 1.33 121.05 8.11 114.27 8.83 113.54 35.74 86.63 36.47 85.91 65.42 56.95 66.14 56.23 92.54 29.83 121.05 1.33 122.48 1.33"/><polygon class="cls-2" points="67.22 1.33 66.35 2.2 65.63 2.92 39.23 29.32 38.51 30.04 9.56 59 8.83 59.72 1.33 67.22 1.33 65.78 8.11 59 8.83 58.28 37.79 29.32 38.51 28.6 64.9 2.2 64.91 2.2 65.63 1.48 65.63 1.48 65.78 1.33 67.22 1.33"/><polygon class="cls-2" points="181.77 54.2 181.77 55.64 176.87 60.53 176.16 61.25 150.78 86.63 150.06 87.35 123.66 113.75 122.94 114.47 93.98 143.43 93.26 144.15 75.32 162.1 73.87 162.1 92.54 143.43 93.27 142.71 122.22 113.75 122.94 113.03 149.34 86.63 150.06 85.91 175.44 60.53 176.16 59.82 181.77 54.2"/><polygon class="cls-2" points="181.77 105.9 181.77 107.35 176.64 112.49 175.92 113.22 149.57 139.66 148.85 140.38 127.21 162.1 125.77 162.1 148.13 139.66 148.84 138.93 175.2 112.49 175.92 111.77 181.77 105.9"/></g><path class="cls-3" d="M49,55.11v6H152.17v48.78a.28.28,0,0,1,0,.09.48.48,0,0,1-.34.14H95.68a.51.51,0,0,1-.51-.51V89.26a.51.51,0,0,1,.51-.51h36v-6H32.14V32.55a1.27,1.27,0,0,1,1.27-1.27H151.12a1.27,1.27,0,0,1,1.27,1.27V53.84a1.27,1.27,0,0,1-1.27,1.27Z"/><path class="cls-3" d="M153.33,115.81v20.8H32V89.21a.47.47,0,0,1,.48-.48H89.2a.48.48,0,0,1,.48.48V109a.49.49,0,0,1-.48.48H52.69v6.29Z"/><path class="cls-4" d="M302.33,93.21l-3.45,2-4.31,2.5a1.12,1.12,0,0,1-.48.21h-6.64V25.74h3v6.82l2.36-1.35c2.9-1.69,5.81-3.36,8.71-5.07a2.79,2.79,0,0,1,1.64-.45c.71,0,1.41,0,2.14,0V97.87h-3Zm-.05-42.51-11.84,6.87,11.84,6.91Zm0-7.5V29.46l-11.84,6.87ZM290.44,78.86l11.83,6.86V72Zm11.84-10.63-11.8-6.88V75.08ZM290.47,96.34l11.81-6.86-11.81-6.86Zm0-56.24V53.8L302.28,47Z"/><path class="cls-4" d="M319.85,101.92H274.7l.49-1.22c.2-.46.41-.91.59-1.37.26-.66,1.39-1,3.14-1h36.79c1.51,0,2.63.32,3,.85a3.79,3.79,0,0,1,.18.42Z"/><path class="cls-4" d="M297.26,8.71h9.92a1.89,1.89,0,0,1,2.07,2.06v11.9a1.89,1.89,0,0,1-2.05,2H287.3a1.86,1.86,0,0,1-2-2q0-6,0-12a1.87,1.87,0,0,1,2.05-2Z"/><path class="cls-4" d="M580.53,19.92H310.26V13.48H568.11a18.55,18.55,0,0,1,4.22.36c1.39.33,2.81.66,4.49.92,3.16.49,4,1.1,3.79,1.89A11.22,11.22,0,0,0,580.53,19.92Z"/><path class="cls-4" d="M575.12,19.92V34.85h1.45V19.92Zm-6.77,0V34.85h1.44V19.92Zm7.26,11.48v0m-47.47,8.93.42-.11.3-.08m-1,.47.17-.16.12-.12"/><path class="cls-4" d="M284.28,13.48V19.9h-9.11c0-.94.07-1.9,0-2.83a3,3,0,0,1,1-2.63,2.93,2.93,0,0,1,2.38-1C280.45,13.54,282.33,13.48,284.28,13.48Z"/><rect class="cls-5" x="274.26" y="46.95" width="48.8" height="56.39"/><g id="LINE"><polygon class="cls-3" points="234.96 60.71 234.61 62.74 234.96 64.74 235.31 66.55 235.89 68.3 236.67 69.98 237.64 71.55 238.79 73 240.12 74.29 241.57 75.41 243.17 76.36 244.85 77.11 246.62 77.66 248.44 77.99 250.28 78.1 240.31 78.1 236.65 77.84 233.41 77.07 230.56 75.78 228.14 73.97 226.19 71.72 224.8 69.1 223.96 66.11 223.68 62.74 223.96 59.36 224.8 56.36 226.19 53.73 228.14 51.49 230.56 49.7 233.41 48.41 236.65 47.64 240.31 47.38 266.87 47.38 266.87 58.09 240.09 58.09 237.71 58.38 236 59.26 234.96 60.71"/><polygon class="cls-3" points="268.74 82.96 268.46 86.36 267.61 89.35 266.21 91.93 264.23 94.13 261.76 95.9 258.84 97.15 255.44 97.92 251.57 98.17 225.17 98.17 225.17 88.28 251.87 88.28 254.72 87.96 256.86 86.96 258.2 85.27 258.64 82.96 258.2 80.64 256.86 78.95 254.72 77.97 251.87 77.66 250.29 77.66 248.49 77.55 246.72 77.23 245 76.7 243.37 75.97 241.83 75.06 240.4 73.96 239.12 72.69 238.01 71.29 237.06 69.77 236.31 68.13 235.78 66.55 237.58 67.46 240.06 67.75 251.57 67.75 255.44 68.02 258.84 68.77 261.76 70.04 264.23 71.8 266.21 73.99 267.61 76.58 268.46 79.56 268.74 82.96"/><polygon class="cls-3" points="319.29 47.38 319.29 58.09 303.79 58.09 303.79 66.97 292.87 66.97 292.87 58.09 277.29 58.09 277.29 47.38 319.29 47.38"/><rect class="cls-3" x="293.3" y="67.41" width="10.05" height="30.76"/><rect class="cls-3" x="328.73" y="47.38" width="10.92" height="23.24"/><rect class="cls-3" x="329.17" y="71.07" width="10.05" height="27.1"/><polygon class="cls-3" points="554.17 62.35 554.17 74.2 553.81 72.07 553.2 69.99 552.36 67.98 551.31 66.09 550.06 64.32 548.61 62.7 547 61.25 545.24 59.99 543.33 58.94 541.33 58.1 540.22 57.77 539.25 57.49 537.12 57.12 522.55 57.12 520.25 57.56 519.3 57.86 518.01 58.27 515.87 59.26 513.87 60.49 512.02 61.96 510.36 63.62 508.92 65.48 507.71 67.51 506.75 69.65 506.06 71.9 505.64 74.2 505.5 76.56 505.5 62.35 505.76 58.8 506.56 55.66 507.89 52.91 509.75 50.58 512.08 48.73 514.81 47.4 517.96 46.59 521.51 46.34 538.13 46.34 541.69 46.59 544.84 47.4 547.58 48.73 549.91 50.58 551.78 52.91 553.11 55.66 553.9 58.8 554.17 62.35"/><polygon class="cls-3" points="553.72 74.25 553.72 83.53 553.46 87.03 552.7 90.12 551.4 92.78 549.61 95.06 547.35 96.87 544.7 98.17 541.62 98.95 538.12 99.22 521.52 99.22 518.03 98.95 514.97 98.17 512.32 96.87 510.07 95.06 508.27 92.78 506.98 90.12 506.2 87.03 505.94 83.53 505.94 76.57 506.08 74.26 506.49 72 507.17 69.8 508.1 67.71 509.29 65.73 510.69 63.92 512.32 62.29 514.12 60.85 516.08 59.65 517.16 59.15 516.39 60.43 515.99 63.21 515.99 82.78 516.39 85.56 517.65 87.65 519.74 88.91 522.52 89.32 537.14 89.32 539.93 88.91 542.02 87.65 543.29 85.56 543.69 82.78 543.69 63.21 543.29 60.43 542.43 59.03 543.14 59.33 545 60.37 546.72 61.6 548.3 63.01 549.71 64.59 550.94 66.32 551.97 68.18 552.78 70.13 553.37 72.17 553.72 74.25"/><line class="cls-3" x1="576.54" y1="54.29" x2="575.41" y2="54.73"/><line class="cls-3" x1="576.65" y1="54.28" x2="576.54" y2="54.29"/><line class="cls-3" x1="574.69" y1="55.49" x2="574.5" y2="56.18"/><line class="cls-3" x1="575.41" y1="54.73" x2="574.69" y2="55.49"/><path class="cls-3" d="M620.45,78.28l-.13,2.6-.63,2.37-1.12,2.14L617,87.23l-2,1.52-2.44,1.17-2.87.83-5.13.4-2.2-.38-2-.78-1.81-1.23L596.82,87l-3.28-5-13.16-25-1.84-2.5-.9-.35-1,.05a3,3,0,0,0,.17-.41,3.86,3.86,0,0,0-1.48-4.41,8.66,8.66,0,0,0-1.42-.73c-.77-.34-.81-.37-.59-1.25.8,0,1.62,0,2.42,0,.31,0,.45-.09.52-.41.3-1.17.57-2.36.9-3.53l2-.15,2.2.38,2,.78,1.8,1.22,1.74,1.73,3.28,5,13.16,25L605.13,80l.9.34,1.1,0,1.11-.45L609,79l.3-1.1,1.26-2.25,1.13-2.33,1-2.39.81-2.45.67-2.49.5-2.53.35-2.55.19-2.57,0-2.58L615,53.2l-.3-2.57-.45-2.53,5.81,27.35Z"/><polyline class="cls-3" points="577.17 43.55 575.32 43.7 574.01 43.8"/><path class="cls-3" d="M571.14,55.49l-.12.44a4.06,4.06,0,0,0,2.25.5,3.69,3.69,0,0,0,1.23-.25l-.11.39-1.3,2-1.16,2.06-1,2.14L570,65l-.71,2.26-.56,2.3-.4,2.34-.24,2.35-.08,2.37.09,2.37.25,2.35.42,2.33L563.58,59l-.38-2.82.13-2.58.63-2.35,1.13-2.12,1.59-1.84,1.7-1.26q.15.53.27,1c.09.31.2.41.52.41.77,0,1.54,0,2.37,0,0,.45,0,.84,0,1.21s.08.46.4.59a9.32,9.32,0,0,1,2,1.08,2.56,2.56,0,0,1,.71,3.47A2.74,2.74,0,0,1,571.56,55Z"/><line class="cls-3" x1="571.14" y1="44.63" x2="574.02" y2="43.8"/><line class="cls-3" x1="568.7" y1="45.79" x2="568.38" y2="46.03"/><line class="cls-3" x1="568.7" y1="45.79" x2="571.14" y2="44.63"/><polygon class="cls-3" points="614.71 55.78 614.69 58.33 614.5 60.88 614.16 63.41 613.66 65.91 613 68.38 612.19 70.8 611.22 73.16 610.12 75.47 609.57 76.45 601.71 39.44 611.53 37.35 613.83 48.18 614.27 50.7 614.57 53.23 614.71 55.78"/><polygon class="cls-3" points="581.97 95.1 572.14 97.2 569.25 83.54 568.83 81.23 568.58 78.9 568.5 76.57 568.57 74.23 568.81 71.91 569.2 69.6 569.75 67.33 570.45 65.1 571.32 62.93 572.32 60.81 573.47 58.77 574.07 57.87 574.09 58.03 581.97 95.1"/><line class="cls-3" x1="473.6" y1="58.09" x2="470.98" y2="58.56"/><line class="cls-3" x1="470.98" y1="58.56" x2="470.62" y2="58.68"/><polygon class="cls-3" points="495.16 47.38 495.16 58.09 473.6 58.09 470.94 58.48 470.62 58.68 468.45 59.39 466.06 60.55 463.85 62.02 461.85 63.78 460.12 65.8 458.68 68.03 457.55 70.44 456.76 72.98 456.55 74.3 456.55 63.39 456.81 59.83 457.61 56.68 458.94 53.94 460.8 51.61 463.13 49.77 465.86 48.44 469.01 47.65 472.56 47.38 495.16 47.38"/><polygon class="cls-3" points="494.72 88.28 494.72 98.17 472.57 98.17 469.08 97.91 466.01 97.13 463.36 95.84 461.12 94.03 459.32 91.77 458.03 89.1 457.25 86.03 456.99 82.51 456.99 74.33 457.2 73.08 457.97 70.61 459.07 68.25 460.48 66.06 462.17 64.09 464.12 62.37 466.27 60.93 468.35 59.92 467.44 61.45 467.03 64.26 467.03 81.73 467.44 84.51 468.7 86.61 470.78 87.87 473.56 88.28 494.72 88.28"/><polygon class="cls-3" points="367.25 67.75 391.8 67.75 391.8 77.66 362.1 77.66 362.87 76.69 364.03 74.97 365.07 73.19 365.97 71.33 366.74 69.41 367.25 67.75"/><polygon class="cls-3" points="392.25 47.38 392.25 58.09 368.45 58.09 365.61 58.42 363.78 59.39 362.8 61.21 362.46 64.07 362.46 67.32 366.93 67.32 366.31 69.26 365.56 71.15 364.68 72.98 363.66 74.74 362.51 76.42 361.25 78.02 359.86 79.51 358.38 80.9 356.8 82.17 355.13 83.33 353.36 84.36 351.54 85.26 351.54 63.39 351.78 59.38 352.46 55.98 353.62 53.21 355.23 51.06 357.4 49.45 360.19 48.3 363.61 47.61 367.66 47.38 392.25 47.38"/><polygon class="cls-3" points="361.58 78.3 362.03 77.74 362.03 98.17 351.98 98.17 351.98 85.53 353.58 84.75 355.36 83.71 357.06 82.52 358.67 81.23 360.18 79.83 361.58 78.3"/><line class="cls-3" x1="351.54" y1="82.98" x2="351.22" y2="82.86"/><polygon class="cls-3" points="444.9 47.38 444.9 58.09 421.1 58.09 418.26 58.42 416.44 59.39 415.44 61.21 415.11 64.07 415.11 67.32 419.54 67.32 418.95 69.14 418.21 71.03 417.32 72.87 416.3 74.63 415.16 76.31 413.89 77.9 412.51 79.4 411.03 80.78 409.44 82.06 407.77 83.22 406.01 84.25 404.19 85.15 404.19 63.39 404.42 59.38 405.11 55.98 406.27 53.21 407.88 51.06 410.04 49.45 412.84 48.3 416.26 47.61 420.3 47.38 444.9 47.38"/><polygon class="cls-3" points="444.46 67.75 444.46 77.66 414.67 77.66 414.66 77.65 415.51 76.57 416.68 74.87 417.71 73.07 418.61 71.21 419.38 69.29 419.86 67.75 444.46 67.75"/><polygon class="cls-3" points="414.67 77.66 414.67 98.17 404.64 98.17 404.64 85.42 406.22 84.63 408.01 83.59 409.7 82.42 411.31 81.11 412.82 79.71 414.22 78.19 414.66 77.65 414.67 77.66"/><line class="cls-3" x1="419.57" y1="67.2" x2="419.53" y2="67.32"/><path class="cls-3" d="M577.58,37.81c-.32-.81-.51-1.67-.76-2.54H575.6v-.14h-1.1v.13h-4.08v-.13h-1.1v.16a4.25,4.25,0,0,1-.62,0c-.46-.07-.66.1-.77.56-.32,1.27-.7,2.5-1,3.75a1.22,1.22,0,0,0,0,.6c.5,1.93,1,3.89,1.5,5.83q.15.53.27,1c.09.31.2.41.52.41.77,0,1.54,0,2.37,0,0,.45,0,.84,0,1.21s.08.46.4.59a9.32,9.32,0,0,1,2,1.08,2.56,2.56,0,0,1,.71,3.47A2.74,2.74,0,0,1,571.56,55l-.42.45-.12.44a4.06,4.06,0,0,0,2.25.5,3.69,3.69,0,0,0,1.23-.25,3.65,3.65,0,0,0,2.15-1.9,3,3,0,0,0,.17-.41,3.86,3.86,0,0,0-1.48-4.41,8.66,8.66,0,0,0-1.42-.73c-.77-.34-.81-.37-.59-1.25.8,0,1.62,0,2.42,0,.31,0,.45-.09.52-.41.3-1.17.57-2.36.9-3.53.15-.54.31-1.09.49-1.63A5.71,5.71,0,0,0,577.58,37.81Zm-9.09,4.78c.67-2,1.36-4,2-5.92.12-.41.28-.6.72-.54a7.14,7.14,0,0,0,.94,0c-1.06,3.08-2.07,6.09-3.1,9.09a.2.2,0,0,0-.11,0c-.19-.74-.39-1.47-.56-2.19A1.1,1.1,0,0,1,568.49,42.59Zm3.18,3.47c-.15.45-.34.67-.84.58a4.8,4.8,0,0,0-.85,0l.58-1.74c.51-1.48,1-2.91,1.48-4.34s.9-2.59,1.31-3.92c.13-.39.32-.57.74-.51a6.71,6.71,0,0,0,.91,0l-.17.55c-.85,2.54-1.73,5.08-2.57,7.62C572.06,44.89,571.86,45.47,571.67,46.06Zm2.79.17c-.09.29-.23.45-.58.41s-.61,0-1,0c.32-.92.63-1.84.94-2.77.83-2.43,1.64-4.86,2.46-7.28h.11c.21.67.41,1.34.6,2a.89.89,0,0,1-.06.45c-.52,1.55-1,3.09-1.57,4.64C575,44.54,574.75,45.38,574.46,46.23Z"/></g><text class="cls-6" transform="translate(224.01 128.05)">ENGINEERING</text></g></g></svg>